<svg preserveAspectRatio="xMidYMid meet" viewBox="219.136 204.8 1230.848 591.872" xmlns="http://www.w3.org/2000/svg" version="1.0" style="max-height: 500px" width="1230.848" height="591.872">
<metadata>
Created by potrace 1.16, written by Peter Selinger 2001-2019
</metadata>
<g stroke="none" fill="#000000" transform="translate(0.000000,1024.000000) scale(0.100000,-0.100000)">
<path d="M4021 7289 c-857 -90 -1556 -691 -1771 -1522 -81 -316 -81 -687 -1&#10;-1000 71 -272 211 -550 395 -778 496 -618 1315 -889 2097 -693 482 120 923&#10;432 1199 847 202 303 311 616 341 979 40 468 -118 988 -420 1383 -70 92 -236&#10;259 -342 344 -409 330 -971 495 -1498 440z m574 -279 c1000 -214 1617 -1158&#10;1399 -2139 -96 -432 -369 -825 -753 -1082 -285 -192 -582 -289 -937 -306 -693&#10;-33 -1366 363 -1679 987 -202 404 -246 830 -131 1254 168 612 652 1094 1262&#10;1257 192 51 265 59 514 55 182 -4 244 -8 325 -26z"/>
<path d="M5196 6017 c-93 -17 -122 -26 -132 -42 -7 -11 -22 -85 -34 -165 -12&#10;-80 -41 -253 -65 -385 -78 -427 -87 -487 -75 -499 7 -7 40 -5 112 7 153 27&#10;150 25 168 136 l15 94 135 27 c74 15 156 30 182 33 l47 7 40 -85 c22 -47 43&#10;-85 48 -85 25 0 231 34 250 41 13 5 23 14 23 21 0 18 -140 256 -454 778 -96&#10;158 -78 150 -260 117z m168 -447 l76 -147 -106 -17 c-58 -10 -108 -16 -110&#10;-13 -5 5 10 164 27 281 14 95 9 100 113 -104z"/>
<path d="M4485 5881 c-137 -30 -135 -29 -135 -57 0 -20 77 -442 95 -519 2 -12&#10;-18 4 -51 40 -180 194 -392 414 -409 424 -17 10 -44 8 -134 -8 -63 -11 -119&#10;-25 -125 -31 -7 -7 -2 -50 18 -143 30 -147 67 -343 121 -641 19 -109 38 -202&#10;41 -207 3 -5 20 -9 37 -9 43 1 197 36 209 48 7 7 -8 103 -46 293 -31 155 -55&#10;284 -53 286 2 2 26 -25 53 -59 27 -35 134 -150 238 -255 149 -152 195 -193&#10;215 -193 45 0 199 31 216 44 15 10 15 18 6 52 -6 21 -27 132 -46 246 -19 114&#10;-51 278 -70 365 -18 87 -39 190 -45 228 -17 110 -19 115 -38 114 -9 -1 -53 -9&#10;-97 -18z"/>
<path d="M3438 5680 c-53 -10 -102 -21 -109 -25 -17 -11 -5 -103 51 -392 28&#10;-139 50 -266 50 -283 0 -79 -53 -135 -141 -149 -99 -16 -165 21 -194 108 -8&#10;25 -39 168 -69 316 -69 344 -64 325 -90 325 -41 -1 -207 -37 -218 -48 -11 -11&#10;-9 -23 84 -512 37 -197 69 -270 150 -345 74 -69 150 -95 275 -95 262 0 448&#10;147 460 364 3 54 -6 130 -40 316 -25 135 -50 279 -57 320 -18 118 -19 120 -38&#10;119 -9 0 -61 -9 -114 -19z"/>
<path d="M9661 6105 c-100 -28 -148 -83 -158 -179 -3 -40 0 -60 19 -96 32 -63&#10;84 -94 213 -129 116 -31 145 -51 145 -98 0 -13 -11 -35 -25 -48 -20 -21 -34&#10;-25 -84 -25 -49 0 -65 4 -90 25 -16 14 -33 35 -36 45 -6 18 -16 20 -81 20&#10;l-76 0 7 -32 c26 -119 115 -180 265 -181 131 -1 217 44 254 135 34 80 7 178&#10;-61 222 -21 13 -78 36 -128 51 -49 14 -105 34 -124 43 -71 35 -60 110 19 133&#10;53 16 107 -4 135 -49 20 -33 21 -33 79 -27 33 3 61 7 64 10 12 12 -13 80 -41&#10;112 -61 70 -187 98 -296 68z"/>
<path d="M8408 6103 l-48 -4 0 -55 c0 -29 -1 -57 -2 -60 -2 -4 39 -6 90 -5&#10;l93 2 -7 -280 -7 -281 79 0 79 0 -3 280 -4 280 91 0 91 0 0 65 0 65 -202 -2&#10;c-112 -1 -224 -3 -250 -5z"/>
<path d="M9023 6103 l-62 -4 -3 -339 -3 -340 228 0 227 0 0 60 0 60 -155 0&#10;-155 0 0 85 0 85 135 0 135 0 0 60 0 59 -132 3 -133 3 -3 78 -4 77 156 0 c176&#10;0 164 -6 150 83 l-7 37 -156 -2 c-86 -1 -184 -3 -218 -5z"/>
<path d="M7155 5803 c-53 -164 -102 -317 -110 -340 l-14 -43 74 0 74 0 16 58&#10;c9 31 18 63 20 70 3 9 38 12 129 12 l125 0 21 -70 21 -70 74 0 c54 0 75 4 75&#10;13 0 7 -49 158 -110 337 -60 179 -110 326 -110 328 0 1 -42 2 -94 2 l-95 0&#10;-96 -297z m271 -105 c5 -16 -3 -18 -79 -18 l-85 0 13 43 c7 23 25 83 40 132&#10;l28 90 39 -115 c21 -63 41 -123 44 -132z"/>
<path d="M7760 5777 c0 -179 -3 -332 -6 -341 -5 -14 5 -16 75 -16 l81 0 0 120&#10;0 120 59 0 59 0 62 -120 61 -120 79 0 c44 0 80 2 80 4 0 2 -34 64 -76 137 -42&#10;73 -71 135 -66 137 58 19 117 90 127 153 16 96 -19 176 -95 219 -43 24 -53 25&#10;-242 28 l-198 4 0 -325z m339 188 c33 -17 41 -33 41 -85 0 -30 -6 -44 -31 -64&#10;-28 -23 -39 -26 -115 -26 l-84 0 0 95 0 95 80 0 c52 0 91 -5 109 -15z"/>
<path d="M9565 5070 c-104 -15 -187 -83 -221 -181 -26 -75 -26 -253 -1 -326&#10;42 -121 126 -182 261 -191 185 -12 295 81 326 272 17 110 -8 245 -61 322 -53&#10;78 -183 122 -304 104z m160 -150 c40 -37 58 -117 53 -225 -6 -105 -24 -152&#10;-71 -180 -41 -25 -124 -26 -160 -2 -52 34 -62 69 -62 212 0 142 10 174 64 209&#10;40 26 142 18 176 -14z"/>
<path d="M11103 5070 c-77 -16 -140 -64 -162 -123 -17 -45 -13 -124 9 -167 26&#10;-51 81 -83 199 -114 107 -29 138 -46 147 -81 8 -32 -18 -72 -54 -86 -60 -24&#10;-153 7 -172 57 -9 23 -14 24 -85 24 l-75 0 6 -27 c29 -127 143 -194 307 -180&#10;137 12 219 88 220 206 1 118 -45 157 -254 215 -77 22 -109 48 -109 92 0 61 79&#10;91 155 60 19 -8 40 -26 47 -40 10 -24 16 -26 75 -26 61 0 63 1 63 25 0 54 -55&#10;121 -120 149 -47 19 -144 27 -197 16z"/>
<path d="M14063 5070 c-52 -11 -80 -25 -116 -59 -43 -39 -59 -78 -59 -141 0&#10;-114 56 -166 222 -205 41 -10 87 -24 102 -31 83 -42 51 -132 -49 -141 -58 -5&#10;-112 19 -131 60 -13 26 -16 27 -88 27 l-74 0 6 -27 c20 -90 88 -154 181 -173&#10;79 -17 180 -8 238 20 143 69 152 270 16 339 -20 11 -77 31 -126 45 -111 32&#10;-139 51 -143 98 -4 43 21 68 76 75 48 6 103 -17 122 -52 12 -23 20 -25 77 -25&#10;57 0 63 2 63 20 0 56 -55 126 -120 154 -47 19 -144 27 -197 16z"/>
<path d="M9060 4725 l1 -345 74 0 75 0 0 345 0 345 -75 0 -75 0 0 -345z"/>
<path d="M10667 5063 c-9 -8 -9 -234 0 -486 l6 -197 69 0 68 0 0 345 0 345&#10;-68 0 c-38 0 -72 -3 -75 -7z"/>
<path d="M11918 4814 l-3 -256 -33 -29 c-26 -23 -42 -29 -78 -29 -57 0 -98 21&#10;-112 57 -6 15 -14 135 -18 266 l-6 237 -70 0 -69 0 3 -262 c3 -250 4 -265 25&#10;-305 42 -77 130 -123 238 -123 116 0 210 53 248 140 24 54 34 236 22 434 l-7&#10;126 -69 0 -68 0 -3 -256z"/>
<path d="M12838 5013 c-2 -32 -2 -187 1 -346 l4 -287 206 2 206 3 3 63 3 62&#10;-141 0 -140 0 0 280 0 280 -69 0 -69 0 -4 -57z"/>
<path d="M13360 5063 c0 -5 -1 -160 -3 -345 l-3 -338 222 0 c248 0 234 -5 234&#10;76 l0 44 -155 0 -155 0 0 85 0 85 135 0 135 0 0 60 0 60 -135 0 -135 0 0 80 0&#10;80 150 0 150 0 0 60 0 60 -220 0 c-121 0 -220 -3 -220 -7z"/>
<path d="M7141 4737 c-57 -177 -106 -330 -109 -340 -4 -16 2 -18 69 -15 l74 3&#10;19 68 20 68 125 -3 125 -3 20 -67 19 -68 73 0 c49 0 74 4 74 11 0 12 -168 524&#10;-202 617 l-19 52 -92 0 -92 0 -104 -323z m243 32 c20 -63 36 -118 36 -122 0&#10;-4 -37 -7 -81 -7 -73 0 -81 2 -77 18 30 108 74 239 80 234 3 -4 22 -59 42&#10;-123z"/>
<path d="M7712 4803 c3 -243 4 -260 25 -299 50 -94 150 -141 274 -131 112 9&#10;185 54 223 137 19 41 21 67 24 298 l4 252 -70 0 -69 0 -6 -240 c-7 -259 -12&#10;-285 -62 -308 -42 -19 -118 -15 -148 8 -36 29 -47 76 -47 205 0 61 -3 161 -7&#10;223 l-6 112 -69 0 -69 0 3 -257z"/>
<path d="M8390 4720 l0 -340 143 0 c236 0 314 32 377 154 35 68 35 71 35 195&#10;0 118 -2 130 -28 183 -16 32 -45 71 -65 88 -62 51 -107 60 -294 60 l-168 0 0&#10;-340z m287 219 c66 -13 97 -48 113 -126 16 -73 6 -182 -20 -233 -28 -54 -69&#10;-74 -158 -74 l-73 -1 0 218 c1 119 1 219 1 220 0 9 90 6 137 -4z"/>
<path d="M10070 4723 l108 -338 95 -3 95 -3 11 33 c5 18 46 152 91 298 44 146&#10;87 284 95 308 l14 42 -78 0 -78 0 -68 -237 c-38 -131 -71 -244 -75 -251 -4 -7&#10;-19 29 -34 80 -15 51 -48 164 -74 250 l-47 158 -81 0 -81 0 107 -337z"/>
<path d="M12237 4727 c-59 -182 -107 -336 -107 -340 0 -4 32 -7 72 -5 79 3 72&#10;-3 98 96 l11 43 127 -3 126 -3 20 -67 19 -68 73 0 c55 0 74 3 74 13 0 11 -169&#10;522 -210 635 l-12 32 -91 0 -92 0 -108 -333z m247 42 c20 -64 36 -120 36 -123&#10;0 -3 -37 -6 -81 -6 -73 0 -81 2 -77 18 30 107 74 239 79 234 4 -4 23 -59 43&#10;-123z"/>
</g>
</svg>